<svg xmlns="http://www.w3.org/2000/svg" width="18.129" height="18.129" viewBox="0 0 18.129 18.129">
  <path id="Icon_awesome-linkedin" data-name="Icon awesome-linkedin" d="M16.834,2.25H1.291A1.3,1.3,0,0,0,0,3.557V19.072a1.3,1.3,0,0,0,1.291,1.307H16.834a1.3,1.3,0,0,0,1.295-1.307V3.557A1.3,1.3,0,0,0,16.834,2.25ZM5.479,17.789H2.792V9.137H5.483v8.652ZM4.136,7.956A1.558,1.558,0,1,1,5.694,6.4,1.559,1.559,0,0,1,4.136,7.956Zm11.416,9.833H12.864V13.581c0-1-.02-2.294-1.4-2.294-1.4,0-1.615,1.093-1.615,2.222v4.281H7.167V9.137H9.744v1.182h.036a2.83,2.83,0,0,1,2.545-1.4c2.719,0,3.225,1.793,3.225,4.124Z" transform="translate(0 -2.25)"/>
</svg>
