<svg xmlns="http://www.w3.org/2000/svg" width="18.926" height="18.922" viewBox="0 0 18.926 18.922">
  <path id="Icon_awesome-instagram" data-name="Icon awesome-instagram" d="M9.46,6.847A4.851,4.851,0,1,0,14.311,11.7,4.844,4.844,0,0,0,9.46,6.847Zm0,8.005A3.154,3.154,0,1,1,12.614,11.7,3.16,3.16,0,0,1,9.46,14.852Zm6.181-8.2A1.132,1.132,0,1,1,14.51,5.517,1.129,1.129,0,0,1,15.641,6.649ZM18.854,7.8a5.6,5.6,0,0,0-1.528-3.965A5.637,5.637,0,0,0,13.361,2.3c-1.562-.089-6.245-.089-7.807,0A5.628,5.628,0,0,0,1.59,3.828,5.618,5.618,0,0,0,.061,7.793c-.089,1.562-.089,6.245,0,7.807A5.6,5.6,0,0,0,1.59,19.564a5.644,5.644,0,0,0,3.965,1.528c1.562.089,6.245.089,7.807,0a5.6,5.6,0,0,0,3.965-1.528A5.637,5.637,0,0,0,18.854,15.6c.089-1.562.089-6.24,0-7.8Zm-2.018,9.479a3.193,3.193,0,0,1-1.8,1.8c-1.246.494-4.2.38-5.577.38s-4.336.11-5.577-.38a3.193,3.193,0,0,1-1.8-1.8c-.494-1.246-.38-4.2-.38-5.577s-.11-4.336.38-5.577a3.193,3.193,0,0,1,1.8-1.8c1.246-.494,4.2-.38,5.577-.38s4.336-.11,5.577.38a3.193,3.193,0,0,1,1.8,1.8c.494,1.246.38,4.2.38,5.577S17.33,16.035,16.836,17.276Z" transform="translate(0.005 -2.238)"/>
</svg>
