<svg xmlns="http://www.w3.org/2000/svg" width="18.129" height="14.724" viewBox="0 0 18.129 14.724">
  <path id="Icon_awesome-twitter" data-name="Icon awesome-twitter" d="M16.265,7.05c.012.161.012.322.012.483A10.5,10.5,0,0,1,5.706,18.1,10.5,10.5,0,0,1,0,16.437a7.686,7.686,0,0,0,.9.046A7.441,7.441,0,0,0,5.51,14.9a3.722,3.722,0,0,1-3.474-2.577,4.686,4.686,0,0,0,.7.058,3.93,3.93,0,0,0,.978-.127A3.716,3.716,0,0,1,.736,8.6V8.557a3.742,3.742,0,0,0,1.679.472,3.721,3.721,0,0,1-1.15-4.969A10.561,10.561,0,0,0,8.926,7.947,4.194,4.194,0,0,1,8.834,7.1a3.719,3.719,0,0,1,6.43-2.542,7.315,7.315,0,0,0,2.358-.9A3.705,3.705,0,0,1,15.989,5.7a7.448,7.448,0,0,0,2.14-.575A7.987,7.987,0,0,1,16.265,7.05Z" transform="translate(0 -3.381)"/>
</svg>
